<svg xmlns="http://www.w3.org/2000/svg" width="468.25" height="377.873" viewBox="0 0 468.25 377.873">
  <g id="BackendCode" transform="translate(-247.945 -95.213)">
    <g id="server" transform="translate(247.945 94.713)">
      <path id="Path_4" data-name="Path 4" d="M33.365,6.5A27.365,27.365,0,1,0,60.73,33.865,27.4,27.4,0,0,0,33.365,6.5Zm0,42.568a15.2,15.2,0,1,1,15.2-15.2A15.22,15.22,0,0,1,33.365,49.068Z" transform="translate(30.487 30.487)" fill="#f9c452"/>
      <circle id="Ellipse_1" data-name="Ellipse 1" cx="6.081" cy="6.081" r="6.081" transform="translate(297.976 49.149)" fill="#f9c452"/>
      <circle id="Ellipse_2" data-name="Ellipse 2" cx="6.081" cy="6.081" r="6.081" transform="translate(273.651 49.149)" fill="#f9c452"/>
      <circle id="Ellipse_3" data-name="Ellipse 3" cx="6.081" cy="6.081" r="6.081" transform="translate(310.138 67.393)" fill="#f9c452"/>
      <circle id="Ellipse_4" data-name="Ellipse 4" cx="6.081" cy="6.081" r="6.081" transform="translate(285.813 67.393)" fill="#f9c452"/>
      <circle id="Ellipse_5" data-name="Ellipse 5" cx="6.081" cy="6.081" r="6.081" transform="translate(249.327 49.149)" fill="#f9c452"/>
      <circle id="Ellipse_6" data-name="Ellipse 6" cx="6.081" cy="6.081" r="6.081" transform="translate(261.489 67.393)" fill="#f9c452"/>
      <circle id="Ellipse_7" data-name="Ellipse 7" cx="6.081" cy="6.081" r="6.081" transform="translate(225.002 49.149)" fill="#f9c452"/>
      <circle id="Ellipse_8" data-name="Ellipse 8" cx="6.081" cy="6.081" r="6.081" transform="translate(237.164 67.393)" fill="#f9c452"/>
      <circle id="Ellipse_9" data-name="Ellipse 9" cx="6.081" cy="6.081" r="6.081" transform="translate(200.678 49.149)" fill="#f9c452"/>
      <circle id="Ellipse_10" data-name="Ellipse 10" cx="6.081" cy="6.081" r="6.081" transform="translate(212.84 67.393)" fill="#f9c452"/>
      <path id="Path_5" data-name="Path 5" d="M364.868,100.182V28.522A28.053,28.053,0,0,0,336.846.5H28.022A28.053,28.053,0,0,0,0,28.522v71.654a27.857,27.857,0,0,0,10.806,21.941A27.888,27.888,0,0,0,0,144.063v71.654a27.857,27.857,0,0,0,10.806,21.941A27.887,27.887,0,0,0,0,259.605v71.654a28.054,28.054,0,0,0,28.022,28.028H336.84a28.053,28.053,0,0,0,28.022-28.022v-71.66a27.857,27.857,0,0,0-10.806-21.941,27.854,27.854,0,0,0,10.812-21.941v-71.66a27.857,27.857,0,0,0-10.806-21.941A27.866,27.866,0,0,0,364.868,100.182ZM352.706,259.605v71.654a15.878,15.878,0,0,1-15.86,15.86H28.022a15.869,15.869,0,0,1-15.86-15.854v-71.66a15.878,15.878,0,0,1,15.86-15.86H336.84A15.879,15.879,0,0,1,352.706,259.605Zm0-115.542v71.654a15.878,15.878,0,0,1-15.86,15.86H28.022a15.869,15.869,0,0,1-15.86-15.854v-71.66a15.878,15.878,0,0,1,15.86-15.86H336.84A15.879,15.879,0,0,1,352.706,144.063ZM28.022,116.042a15.878,15.878,0,0,1-15.86-15.86V28.522a15.878,15.878,0,0,1,15.86-15.86H336.84a15.879,15.879,0,0,1,15.866,15.86v71.654a15.878,15.878,0,0,1-15.86,15.86H28.022Z" fill="#f9c452"/>
      <path id="Path_6" data-name="Path 6" d="M33.365,80.23A27.365,27.365,0,1,0,6,52.865,27.4,27.4,0,0,0,33.365,80.23Zm0-42.568a15.2,15.2,0,1,1-15.2,15.2A15.22,15.22,0,0,1,33.365,37.662Z" transform="translate(30.487 127.028)" fill="#f9c452"/>
      <circle id="Ellipse_11" data-name="Ellipse 11" cx="6.081" cy="6.081" r="6.081" transform="translate(297.976 164.691)" fill="#f9c452"/>
      <circle id="Ellipse_12" data-name="Ellipse 12" cx="6.081" cy="6.081" r="6.081" transform="translate(273.651 164.691)" fill="#f9c452"/>
      <circle id="Ellipse_13" data-name="Ellipse 13" cx="6.081" cy="6.081" r="6.081" transform="translate(310.138 182.934)" fill="#f9c452"/>
      <circle id="Ellipse_14" data-name="Ellipse 14" cx="6.081" cy="6.081" r="6.081" transform="translate(285.813 182.934)" fill="#f9c452"/>
      <circle id="Ellipse_15" data-name="Ellipse 15" cx="6.081" cy="6.081" r="6.081" transform="translate(249.327 164.691)" fill="#f9c452"/>
      <circle id="Ellipse_16" data-name="Ellipse 16" cx="6.081" cy="6.081" r="6.081" transform="translate(261.489 182.934)" fill="#f9c452"/>
      <circle id="Ellipse_17" data-name="Ellipse 17" cx="6.081" cy="6.081" r="6.081" transform="translate(225.002 164.691)" fill="#f9c452"/>
      <circle id="Ellipse_18" data-name="Ellipse 18" cx="6.081" cy="6.081" r="6.081" transform="translate(237.164 182.934)" fill="#f9c452"/>
      <circle id="Ellipse_19" data-name="Ellipse 19" cx="6.081" cy="6.081" r="6.081" transform="translate(200.678 164.691)" fill="#f9c452"/>
      <circle id="Ellipse_20" data-name="Ellipse 20" cx="6.081" cy="6.081" r="6.081" transform="translate(212.84 182.934)" fill="#f9c452"/>
      <path id="Path_7" data-name="Path 7" d="M33.365,99.23A27.365,27.365,0,1,0,6,71.865,27.4,27.4,0,0,0,33.365,99.23Zm0-42.568a15.2,15.2,0,1,1-15.2,15.2A15.22,15.22,0,0,1,33.365,56.662Z" transform="translate(30.487 223.57)" fill="#f9c452"/>
      <circle id="Ellipse_21" data-name="Ellipse 21" cx="6.081" cy="6.081" r="6.081" transform="translate(297.976 280.232)" fill="#f9c452"/>
      <circle id="Ellipse_22" data-name="Ellipse 22" cx="6.081" cy="6.081" r="6.081" transform="translate(273.651 280.232)" fill="#f9c452"/>
      <circle id="Ellipse_23" data-name="Ellipse 23" cx="6.081" cy="6.081" r="6.081" transform="translate(310.138 298.476)" fill="#f9c452"/>
      <circle id="Ellipse_24" data-name="Ellipse 24" cx="6.081" cy="6.081" r="6.081" transform="translate(285.813 298.476)" fill="#f9c452"/>
      <circle id="Ellipse_25" data-name="Ellipse 25" cx="6.081" cy="6.081" r="6.081" transform="translate(249.327 280.232)" fill="#f9c452"/>
      <circle id="Ellipse_26" data-name="Ellipse 26" cx="6.081" cy="6.081" r="6.081" transform="translate(261.489 298.476)" fill="#f9c452"/>
      <circle id="Ellipse_27" data-name="Ellipse 27" cx="6.081" cy="6.081" r="6.081" transform="translate(225.002 280.232)" fill="#f9c452"/>
      <circle id="Ellipse_28" data-name="Ellipse 28" cx="6.081" cy="6.081" r="6.081" transform="translate(237.164 298.476)" fill="#f9c452"/>
      <circle id="Ellipse_29" data-name="Ellipse 29" cx="6.081" cy="6.081" r="6.081" transform="translate(200.678 280.232)" fill="#f9c452"/>
      <circle id="Ellipse_30" data-name="Ellipse 30" cx="6.081" cy="6.081" r="6.081" transform="translate(212.84 298.476)" fill="#f9c452"/>
    </g>
    <g id="Group_2" data-name="Group 2" transform="translate(-237.86 -10.31)">
      <rect id="Rectangle_1" data-name="Rectangle 1" width="236.84" height="209.301" rx="25" transform="translate(717 274)" fill="#212121"/>
      <g id="web-programming" transform="translate(717 274.247)">
        <path id="Path_8" data-name="Path 8" d="M144.234,231.947a3.9,3.9,0,0,1-2.533-.935l-25.325-21.564a3.915,3.915,0,0,1,0-5.96L141.7,181.923a3.913,3.913,0,1,1,5.073,5.958L124.95,206.467l21.824,18.585a3.915,3.915,0,0,1-2.54,6.895Zm0,0" transform="translate(-50.704 -79.799)" fill="#f9c452"/>
        <path id="Path_9" data-name="Path 9" d="M253.623,231.947a3.916,3.916,0,0,1-2.54-6.895l21.824-18.585-21.824-18.585a3.913,3.913,0,0,1,5.073-5.958l25.325,21.564a3.915,3.915,0,0,1,0,5.96l-25.325,21.564a3.9,3.9,0,0,1-2.533.935Zm0,0" transform="translate(-110.098 -79.799)" fill="#f9c452"/>
        <path id="Path_10" data-name="Path 10" d="M192.874,235.792a3.981,3.981,0,0,1-.812-.085,3.915,3.915,0,0,1-3.023-4.637l15.783-74.938a3.914,3.914,0,0,1,7.659,1.614L196.7,232.684A3.914,3.914,0,0,1,192.874,235.792Zm0,0" transform="translate(-83.311 -67.47)" fill="#f9c452"/>
        <path id="Path_11" data-name="Path 11" d="M210.778,209.149H26.277A26.307,26.307,0,0,1,0,182.872V26.277A26.308,26.308,0,0,1,26.277,0h184.5a26.308,26.308,0,0,1,26.277,26.277V182.872A26.307,26.307,0,0,1,210.778,209.149ZM26.277,7.827a18.472,18.472,0,0,0-18.45,18.45V182.872a18.472,18.472,0,0,0,18.45,18.45h184.5a18.472,18.472,0,0,0,18.45-18.45V26.277a18.472,18.472,0,0,0-18.45-18.45Zm0,0" fill="#f9c452"/>
        <path id="Path_12" data-name="Path 12" d="M233.142,105.917H3.914a3.914,3.914,0,1,1,0-7.827H233.142a3.914,3.914,0,0,1,0,7.827Zm0,0" transform="translate(0 -43.249)" fill="#f9c452"/>
        <path id="Path_13" data-name="Path 13" d="M109.835,59.06A12.385,12.385,0,1,1,122.22,46.674,12.4,12.4,0,0,1,109.835,59.06Zm0-16.943a4.558,4.558,0,1,0,4.558,4.558,4.564,4.564,0,0,0-4.558-4.558Zm0,0" transform="translate(-42.966 -15.118)" fill="#f9c452"/>
        <path id="Path_14" data-name="Path 14" d="M41.772,58.845A12.385,12.385,0,1,1,54.157,46.459,12.4,12.4,0,0,1,41.772,58.845Zm0-16.943a4.558,4.558,0,1,0,4.558,4.558A4.565,4.565,0,0,0,41.772,41.9Zm0,0" transform="translate(-12.957 -15.024)" fill="#f9c452"/>
        <path id="Path_15" data-name="Path 15" d="M177.9,59.272a12.384,12.384,0,1,1,12.385-12.385A12.4,12.4,0,0,1,177.9,59.272Zm0-16.943a4.558,4.558,0,1,0,4.558,4.558A4.562,4.562,0,0,0,177.9,42.329Zm0,0" transform="translate(-72.977 -15.213)" fill="#f9c452"/>
      </g>
    </g>
  </g>
</svg>
