<svg xmlns="http://www.w3.org/2000/svg" viewBox="0 0 228.08 228.328"><defs><style>.a{fill:#f9c452;}</style></defs><g transform="translate(-0.012 0)"><g transform="translate(0.012 0)"><path class="a" d="M196.966,167.44a51.138,51.138,0,0,0-.091-19.408L214.3,105.971a.623.623,0,0,0,0-.084,71.466,71.466,0,0,1,12.234-21.242,5.674,5.674,0,0,0,1.4-5.194L220.8,48.589a3.719,3.719,0,0,0-.381-.921c-.03-.057-.042-.126-.072-.179s-.164-.183-.24-.282a3.841,3.841,0,0,0-.537-.628,3.536,3.536,0,0,0-.415-.251,3.877,3.877,0,0,0-.59-.358,3.76,3.76,0,0,0-.89-.217c-.088,0-.164-.057-.251-.065a3.8,3.8,0,0,0-2.1.468c-.057.03-.126.042-.183.076H215.1L188.233,63a5.678,5.678,0,0,0-2.687,4.681,71.431,71.431,0,0,1-6.4,23.719v.042L170.438,112.5a51.05,51.05,0,0,0-13.593-4.909,205.6,205.6,0,0,0,1.971-37.419,41.533,41.533,0,0,0,9.445-30.489C165.883,17.506,145.84,1.489,144.984.815a3.805,3.805,0,0,0-6.032,3.969c1.96,7.36.263,15.127-14.213,31.1a22.27,22.27,0,0,0-5.217,24.267A29.542,29.542,0,0,0,124.94,68.9c-.921,5.879-1.644,11.447-2.142,16.87a190.576,190.576,0,0,0-.662,26.988,51.78,51.78,0,0,0-9.476,6.6L94.2,40.438c0-.08-.076-.137-.1-.209a3.6,3.6,0,0,0-.266-.734L74.986,4.678A8.787,8.787,0,0,0,58.478,8.544L57.048,48.1a3.931,3.931,0,0,0,.1.849v.171l18.829,80.36a42.854,42.854,0,0,0-8.8,1.313L46.461,80.772A7.691,7.691,0,0,0,36.529,76.7L4.871,89.809A7.634,7.634,0,0,0,.75,99.753L28.842,167.52a30.425,30.425,0,0,0,1.568,60.807H197.849a30.447,30.447,0,1,0-.883-60.887Zm-3.878-98.5,15.952-9.955-5.647,13.639a3.806,3.806,0,0,0,7.032,2.915L216.073,61.9,220.3,80.216a75.264,75.264,0,0,0-11.036,18.217,15.652,15.652,0,0,1-21.272-8.8A75.173,75.173,0,0,0,193.088,68.94Zm-8.753,29.877a23.18,23.18,0,0,0,9.487,6.907,24.151,24.151,0,0,0,9.312,1.964,20.133,20.133,0,0,0,2.306-.141l-12.143,29.3a51.646,51.646,0,0,0-16.341-20.2ZM132.2,71.638l19.119,1.168c.118,3.554.076,7.23-.042,10.963a80,80,0,0,1-19.065-.921c-.479-.068-.948-.122-1.423-.186.381-3.585.845-7.215,1.4-11.024Zm-1.815-30.645c10.1-11.146,15.34-19.72,16.557-27.78a50.9,50.9,0,0,1,13.734,27.277,34.1,34.1,0,0,1-7.7,24.781q-11.275-.685-22.3-1.37a15.873,15.873,0,0,1-.293-22.909ZM130.1,90.247l1.1.145a108.4,108.4,0,0,0,14.815,1.26c1.575,0,3.235-.126,4.9-.255-.346,4.9-.913,10.012-1.633,15.3-.94-.049-1.861-.141-2.8-.141a50.968,50.968,0,0,0-16.866,2.9,183.629,183.629,0,0,1,.479-19.21Zm-29.435,44.5L89.774,88.371a3.805,3.805,0,0,0-7.409,1.735l9.784,41.742a43.1,43.1,0,0,0-8.3-2.066l-16.7-71.276A18.035,18.035,0,0,0,74.6,60.127c.24,0,.495-.034.738-.046l2.69,11.489a3.805,3.805,0,1,0,7.409-1.735l-2.694-11.5a18.022,18.022,0,0,0,6.648-5.061l16.98,72.6A51.056,51.056,0,0,0,100.662,134.748ZM77.41,52.17A12.634,12.634,0,0,1,64.7,47.082l.483-13.4a22.394,22.394,0,0,0,4.015.381,16.956,16.956,0,0,0,3.866-.43,19.386,19.386,0,0,0,7.055-3.509l6.408,11.827A12.622,12.622,0,0,1,77.41,52.177ZM66.987,7.715A1.187,1.187,0,0,1,68.3,8.3l8.159,15.089a12.986,12.986,0,0,1-5.137,2.854,12.939,12.939,0,0,1-5.864-.278l.62-17.147A1.179,1.179,0,0,1,66.987,7.715ZM39.447,83.721l2.907,7.025-14.08,5.83a3.805,3.805,0,0,0,1.465,7.314A3.861,3.861,0,0,0,31.2,103.6l14.08-5.834,2.911,7.032-7.044,2.919a3.805,3.805,0,0,0,1.461,7.322,3.871,3.871,0,0,0,1.454-.289l7.044-2.919,2.911,7.032-14.092,5.841a3.805,3.805,0,0,0,1.461,7.322,3.856,3.856,0,0,0,1.454-.289l14.08-5.83L60,133.34a44.177,44.177,0,0,0-24.64,29.991L7.775,96.827Zm158.4,137H30.409a22.833,22.833,0,0,1,0-45.665,22.418,22.418,0,0,1,6.511.944,3.805,3.805,0,0,0,4.905-3.573,36.152,36.152,0,0,1,57.843-28.194,3.806,3.806,0,0,0,5.834-1.712,43.772,43.772,0,0,1,82.814,28.252,3.805,3.805,0,0,0,4.452,4.841,23.76,23.76,0,0,1,5.08-.556,22.833,22.833,0,0,1,0,45.665Z" transform="translate(-0.012 0)"/><path class="a" d="M41.474,35.473a3.805,3.805,0,0,0,3.044-1.5,28.542,28.542,0,0,0,5.061-22.406,3.805,3.805,0,1,0-7.352,1.96,21.139,21.139,0,0,1-3.775,15.853A3.806,3.806,0,0,0,41.5,35.465Z" transform="translate(105.694 24.274)"/><path class="a" d="M73.813,51.5a18.706,18.706,0,0,0-8.163,1.9A22.833,22.833,0,0,0,26.207,75.816a3.806,3.806,0,0,0,3.5,2.314,3.765,3.765,0,0,0,1.492-.3,3.806,3.806,0,0,0,2.009-4.993,15.5,15.5,0,0,1-1.256-6.112A15.222,15.222,0,0,1,47.175,51.5a15.07,15.07,0,0,1,13.757,8.753,4.131,4.131,0,0,0,.266.358,3.866,3.866,0,0,0,.2.381c.068.084.167.122.244.2a5.345,5.345,0,0,0,1.2.875,3.791,3.791,0,0,0,.685.213,3.5,3.5,0,0,0,.715.11,4.676,4.676,0,0,0,1.454-.244,2.9,2.9,0,0,0,.3-.072,3.447,3.447,0,0,0,.354-.263,3.962,3.962,0,0,0,.4-.206,11.222,11.222,0,0,1,7.063-2.5,11.416,11.416,0,0,1,10.351,6.64,3.806,3.806,0,1,0,6.926-3.158A19.028,19.028,0,0,0,73.813,51.5Z" transform="translate(68.35 123.552)"/><path class="a" d="M28.019,39.209C27.445,39.4,14,44.046,14,58.042a3.805,3.805,0,1,0,7.611,0,13.083,13.083,0,0,1,8.836-11.618,3.814,3.814,0,0,0-2.428-7.23Z" transform="translate(39.23 109.398)"/><path class="a" d="M33.881,54.718a3.715,3.715,0,0,0,.925.114,3.806,3.806,0,0,0,3.687-2.881A16.231,16.231,0,0,1,53.852,39.611,3.805,3.805,0,0,0,53.833,32,23.7,23.7,0,0,0,31.115,50.1,3.805,3.805,0,0,0,33.881,54.718Z" transform="translate(86.922 89.776)"/></g></g></svg>