<svg xmlns="http://www.w3.org/2000/svg" viewBox="0 0 239.969 219.972"><defs><style>.a{fill:#f9c452;}</style></defs><g transform="translate(-48)"><g transform="translate(48)"><path class="a" d="M262.973,0H73A25.027,25.027,0,0,0,48,25V159.98a25.027,25.027,0,0,0,25,25h68.361l-7.139,25H117.991v10h99.987v-10H201.751l-7.139-25h68.361a25.027,25.027,0,0,0,25-25V25A25.027,25.027,0,0,0,262.973,0ZM144.618,209.973l7.139-25h32.456l7.139,25ZM277.971,159.98a15,15,0,0,1-15,15H73a15,15,0,0,1-15-15v-10H277.971Zm0-20H58V25A15,15,0,0,1,73,10H262.973a15,15,0,0,1,15,15Z" transform="translate(-48)"/></g><g transform="translate(153.139 43.725)"><g transform="translate(0 0)"><rect class="a" width="72.76" height="9.994" transform="translate(0 69.951) rotate(-74.032)"/></g></g><g transform="translate(102.995 51.154)"><path class="a" d="M174.2,89.535l-6.4-7.679-30,25a5,5,0,0,0,0,7.679l30,25,6.4-7.679L148.81,110.692Z" transform="translate(-136.004 -81.856)"/></g><g transform="translate(194.781 51.154)"><path class="a" d="M319.913,107.49a4.993,4.993,0,0,0-.637-.637l-30-25-6.4,7.679,25.387,21.157L282.88,131.85l6.4,7.679,30-25A5,5,0,0,0,319.913,107.49Z" transform="translate(-282.88 -81.856)"/></g></g></svg>